<svg width="48" height="48" viewBox="0 0 48 48" fill="none" xmlns="http://www.w3.org/2000/svg">
<path d="M48 24C48 10.7452 37.2548 0 24 0C10.7452 0 0 10.7452 0 24C0 37.2548 10.7452 48 24 48C37.2548 48 48 37.2548 48 24Z" fill="#FEE500"/>
<path fill-rule="evenodd" clip-rule="evenodd" d="M24.4603 32.3373C31.1003 32.3373 36.4831 28.0681 36.4831 22.8019C36.4831 17.5357 31.1003 13.2666 24.4603 13.2666C17.8203 13.2666 12.4375 17.5357 12.4375 22.8019C12.4375 26.0674 14.5072 28.9496 17.6631 30.6682L16.7005 35.4809C16.6571 35.6978 16.8976 35.8588 17.0817 35.7361L22.3911 32.1966C23.0633 32.289 23.7547 32.3373 24.4603 32.3373Z" fill="#181818"/>
</svg>
